<?xml version="1.0" encoding="UTF-8"?>
<svg id="Layer_2" data-name="Layer 2" xmlns="http://www.w3.org/2000/svg" viewBox="0 0 482.24 52.48">
  <defs>
    <style>
      .cls-1 {
        fill: #231f20;
      }

      .cls-2 {
        fill: #fff;
      }

      .cls-3 {
        fill: #2d618b;
      }

      .cls-4 {
        fill: #b42024;
      }
    </style>
  </defs>
  <g id="Layer_1-2" data-name="Layer 1">
    <path class="cls-3" d="M22.49,0C10.07,0,0,3.36,0,7.5v3.75c0,4.14,10.07,7.5,22.49,7.5s22.49-3.36,22.49-7.5v-3.75c0-4.14-10.07-7.5-22.49-7.5Z"/>
    <path class="cls-4" d="M22.49,22.49c-8.66,0-17.34-1.54-22.23-4.83-.16.36-.26.72-.26,1.08v3.75c0,4.14,10.07,7.5,22.49,7.5s22.49-3.36,22.49-7.5v-3.75c0-.37-.1-.73-.26-1.08-4.89,3.29-13.57,4.83-22.23,4.83Z"/>
    <path class="cls-4" d="M22.49,33.74c-8.66,0-17.34-1.54-22.23-4.83-.16.36-.26.72-.26,1.08v3.75c0,4.14,10.07,7.5,22.49,7.5s22.49-3.36,22.49-7.5v-3.75c0-.37-.1-.73-.26-1.08-4.89,3.29-13.57,4.83-22.23,4.83Z"/>
    <path class="cls-4" d="M22.49,44.99c-8.66,0-17.34-1.54-22.23-4.83-.16.36-.26.72-.26,1.08v3.75c0,4.14,10.07,7.5,22.49,7.5s22.49-3.36,22.49-7.5v-3.75c0-.37-.1-.73-.26-1.08-4.89,3.29-13.57,4.83-22.23,4.83Z"/>
    <polygon class="cls-2" points="4.6 6.66 5.09 8.16 6.66 8.16 5.39 9.08 5.87 10.58 4.6 9.66 3.33 10.58 3.81 9.08 2.54 8.16 4.11 8.16 4.6 6.66"/>
    <polygon class="cls-2" points="9.63 11.49 10.11 12.98 11.69 12.98 10.42 13.91 10.9 15.4 9.63 14.48 8.36 15.4 8.84 13.91 7.57 12.98 9.14 12.98 9.63 11.49"/>
    <polygon class="cls-2" points="9.63 2.24 10.11 3.73 11.69 3.73 10.42 4.66 10.9 6.15 9.63 5.23 8.36 6.15 8.84 4.66 7.57 3.73 9.14 3.73 9.63 2.24"/>
    <polygon class="cls-2" points="15.61 6.66 16.1 8.16 17.67 8.16 16.4 9.08 16.88 10.58 15.61 9.66 14.34 10.58 14.82 9.08 13.55 8.16 15.12 8.16 15.61 6.66"/>
    <polygon class="cls-2" points="21.51 11.49 21.99 12.98 23.57 12.98 22.3 13.91 22.78 15.4 21.51 14.48 20.24 15.4 20.72 13.91 19.45 12.98 21.02 12.98 21.51 11.49"/>
    <polygon class="cls-2" points="21.51 2.24 21.99 3.73 23.57 3.73 22.3 4.66 22.78 6.15 21.51 5.23 20.24 6.15 20.72 4.66 19.45 3.73 21.02 3.73 21.51 2.24"/>
    <polygon class="cls-2" points="28.71 6.66 29.19 8.16 30.77 8.16 29.49 9.08 29.98 10.58 28.71 9.66 27.43 10.58 27.92 9.08 26.65 8.16 28.22 8.16 28.71 6.66"/>
    <polygon class="cls-2" points="40.41 6.66 40.9 8.16 42.47 8.16 41.2 9.08 41.68 10.58 40.41 9.66 39.14 10.58 39.63 9.08 38.35 8.16 39.93 8.16 40.41 6.66"/>
    <polygon class="cls-2" points="33.36 11.49 33.84 12.98 35.42 12.98 34.14 13.91 34.63 15.4 33.36 14.48 32.08 15.4 32.57 13.91 31.3 12.98 32.87 12.98 33.36 11.49"/>
    <polygon class="cls-2" points="34.82 2.24 35.31 3.73 36.88 3.73 35.61 4.66 36.1 6.15 34.82 5.23 33.55 6.15 34.04 4.66 32.76 3.73 34.34 3.73 34.82 2.24"/>
    <g>
      <path class="cls-1" d="M67.65,41.15l9.34-26.03h4.75l9.34,26.03h-4.39l-2.32-6.53h-9.97l-2.34,6.53h-4.41ZM75.44,30.73h7.83l-3.91-11.36-3.92,11.36Z"/>
      <path class="cls-1" d="M94.79,41.15v-18.61h4.27v2.66c.53-.82,1.26-1.52,2.19-2.12.93-.6,2.12-.9,3.57-.9.98,0,1.98.26,3,.77,1.01.51,1.78,1.26,2.29,2.24.59-.88,1.37-1.6,2.35-2.16s2.08-.85,3.3-.85c.67,0,1.36.11,2.07.32s1.36.58,1.97,1.08c.61.5,1.09,1.19,1.47,2.06s.56,1.96.56,3.27v12.24h-4.37v-11.72c0-1.38-.35-2.33-1.04-2.85-.7-.52-1.47-.78-2.32-.78-.52,0-1.06.1-1.62.31-.56.2-1.04.54-1.42,1.01-.38.47-.58,1.1-.58,1.89v12.15h-4.37v-12.42c0-.65-.17-1.19-.5-1.62-.34-.43-.76-.76-1.28-.98-.52-.22-1.03-.33-1.55-.33s-1.09.11-1.65.34c-.56.23-1.02.58-1.4,1.04-.37.47-.56,1.07-.56,1.82v12.15h-4.37Z"/>
      <path class="cls-1" d="M134.75,41.51c-1.79,0-3.36-.38-4.73-1.14-1.36-.76-2.42-1.85-3.19-3.27s-1.14-3.1-1.14-5.06.35-3.6,1.04-5.08,1.69-2.65,3.01-3.5c1.31-.85,2.9-1.28,4.76-1.28,2.75,0,4.84.85,6.28,2.56,1.44,1.71,2.16,3.97,2.16,6.78v1.33h-12.87c-.01,1.58.37,2.88,1.15,3.9.78,1.01,1.93,1.52,3.44,1.52,1.03,0,1.93-.23,2.69-.69.76-.46,1.27-1.17,1.52-2.11h4c-.22,1.3-.73,2.39-1.54,3.29s-1.79,1.58-2.95,2.05c-1.16.47-2.37.7-3.63.7ZM130.05,30.14h8.75c0-1.34-.35-2.48-1.06-3.41-.71-.93-1.79-1.4-3.26-1.4-.96,0-1.77.23-2.43.7-.66.47-1.16,1.07-1.49,1.81-.34.74-.5,1.5-.5,2.29Z"/>
      <path class="cls-1" d="M147.12,41.15v-18.61h4.19v4.03c.46-1.38,1.19-2.46,2.2-3.23s2.19-1.16,3.52-1.16c.22,0,.42.01.62.04.2.02.35.07.46.13v4.19c-.13-.06-.3-.1-.51-.13-.21-.02-.39-.04-.55-.04-1.8-.14-3.18.13-4.13.84s-1.43,1.74-1.43,3.12v10.82h-4.37Z"/>
      <path class="cls-1" d="M161.61,19.28v-4.14h4.34v4.14h-4.34ZM161.68,41.15v-18.61h4.19v18.61h-4.19Z"/>
      <path class="cls-1" d="M178.71,41.51c-1.7,0-3.22-.38-4.54-1.12-1.33-.75-2.37-1.84-3.12-3.28-.76-1.43-1.13-3.17-1.13-5.19s.36-3.63,1.07-5.08,1.73-2.6,3.04-3.42c1.31-.82,2.88-1.23,4.69-1.23,1.45,0,2.73.29,3.83.87,1.1.58,1.99,1.38,2.66,2.39.67,1.01,1.06,2.17,1.2,3.46h-3.73c-.14-.84-.54-1.6-1.2-2.29-.65-.69-1.56-1.03-2.73-1.03-1.39,0-2.52.52-3.39,1.56-.87,1.04-1.31,2.62-1.31,4.74,0,1.97.41,3.53,1.23,4.7.82,1.16,2,1.75,3.54,1.75.77,0,1.43-.17,1.98-.51.55-.34.99-.77,1.31-1.28.32-.51.52-1.02.6-1.54h3.64c-.11,1.27-.5,2.4-1.17,3.38s-1.56,1.75-2.66,2.3c-1.1.56-2.37.84-3.8.84Z"/>
      <path class="cls-1" d="M195.75,41.51c-1.79,0-3.27-.48-4.45-1.45-1.18-.97-1.76-2.33-1.76-4.1,0-2.05.74-3.6,2.22-4.64s3.84-1.59,7.08-1.64l2.79-.07v-1.26c0-.98-.29-1.75-.88-2.3-.59-.55-1.49-.83-2.7-.83-.91.01-1.74.23-2.48.65-.74.42-1.24,1.11-1.48,2.07h-3.73c.1-1.91.86-3.35,2.29-4.31s3.3-1.45,5.59-1.45c2.65,0,4.58.52,5.79,1.56,1.21,1.04,1.81,2.49,1.81,4.37v13.05h-3.69l-.36-3.35c-.67,1.4-1.52,2.37-2.54,2.91s-2.19.8-3.51.8ZM197.17,38.54c.72,0,1.42-.17,2.11-.51.68-.34,1.24-.78,1.68-1.32.44-.54.66-1.12.67-1.73v-2.93l-2.29.04c-1.69.02-3.05.29-4.09.81-1.03.52-1.55,1.39-1.55,2.63,0,.95.33,1.69.98,2.22.65.53,1.48.8,2.48.8Z"/>
      <path class="cls-1" d="M208.86,24.5l2.03-4.7-1.69-.13v-4.55h4.79v4l-3.37,5.38h-1.76Z"/>
      <path class="cls-1" d="M223.33,41.51c-1.3,0-2.52-.21-3.68-.62-1.16-.41-2.13-1.06-2.92-1.95-.79-.89-1.28-2.03-1.49-3.44h3.85c.24,1.03.77,1.78,1.58,2.23s1.69.68,2.63.68c1.12,0,2.02-.19,2.7-.58.68-.38,1.03-.98,1.03-1.78,0-.59-.19-1.06-.57-1.4-.38-.35-.99-.61-1.84-.79l-3.53-.81c-1.58-.35-2.85-.92-3.81-1.73-.95-.8-1.43-1.94-1.43-3.4-.01-1.66.61-3.03,1.88-4.11s3.13-1.63,5.59-1.63c2.17,0,3.92.48,5.23,1.45s1.99,2.34,2.03,4.13h-3.73c-.13-.79-.51-1.42-1.13-1.87-.62-.46-1.43-.68-2.43-.68s-1.88.2-2.54.59c-.66.4-.99,1-.99,1.82,0,.56.25,1.01.75,1.34s1.26.6,2.28.82l3.35.81c1.27.32,2.25.79,2.93,1.39.68.6,1.15,1.25,1.4,1.94.25.69.38,1.32.38,1.9,0,1.8-.68,3.2-2.04,4.2s-3.19,1.5-5.48,1.5Z"/>
      <path class="cls-1" d="M243.7,41.15V15.13h17.21l-.02,3.76h-12.78v7.29h11.29v3.71h-11.32v7.45l13.09.02v3.8h-17.46Z"/>
      <path class="cls-1" d="M272.54,41.51c-1.3,0-2.52-.21-3.68-.62-1.16-.41-2.13-1.06-2.92-1.95s-1.28-2.03-1.48-3.44h3.85c.24,1.03.77,1.78,1.58,2.23s1.69.68,2.63.68c1.12,0,2.02-.19,2.7-.58.68-.38,1.03-.98,1.03-1.78,0-.59-.19-1.06-.57-1.4-.38-.35-.99-.61-1.84-.79l-3.53-.81c-1.58-.35-2.85-.92-3.81-1.73-.95-.8-1.43-1.94-1.43-3.4-.01-1.66.62-3.03,1.88-4.11,1.27-1.09,3.13-1.63,5.59-1.63,2.17,0,3.92.48,5.23,1.45,1.31.97,1.99,2.34,2.03,4.13h-3.73c-.13-.79-.51-1.42-1.13-1.87-.62-.46-1.43-.68-2.43-.68s-1.88.2-2.54.59-.99,1-.99,1.82c0,.56.25,1.01.75,1.34s1.26.6,2.28.82l3.35.81c1.27.32,2.25.79,2.93,1.39.68.6,1.15,1.25,1.4,1.94.25.69.38,1.32.38,1.9,0,1.8-.68,3.2-2.04,4.2s-3.19,1.5-5.48,1.5Z"/>
      <path class="cls-1" d="M291.08,41.51c-1.3,0-2.52-.21-3.68-.62-1.16-.41-2.13-1.06-2.92-1.95s-1.28-2.03-1.48-3.44h3.85c.24,1.03.77,1.78,1.58,2.23s1.69.68,2.63.68c1.12,0,2.02-.19,2.7-.58.68-.38,1.03-.98,1.03-1.78,0-.59-.19-1.06-.57-1.4-.38-.35-.99-.61-1.84-.79l-3.53-.81c-1.58-.35-2.85-.92-3.81-1.73-.95-.8-1.43-1.94-1.43-3.4-.01-1.66.62-3.03,1.88-4.11,1.27-1.09,3.13-1.63,5.59-1.63,2.17,0,3.92.48,5.23,1.45,1.31.97,1.99,2.34,2.03,4.13h-3.73c-.13-.79-.51-1.42-1.13-1.87-.62-.46-1.43-.68-2.43-.68s-1.88.2-2.54.59-.99,1-.99,1.82c0,.56.25,1.01.75,1.34s1.26.6,2.28.82l3.35.81c1.27.32,2.25.79,2.93,1.39.68.6,1.15,1.25,1.4,1.94.25.69.38,1.32.38,1.9,0,1.8-.68,3.2-2.04,4.2s-3.19,1.5-5.48,1.5Z"/>
      <path class="cls-1" d="M310.81,41.51c-1.79,0-3.36-.38-4.72-1.14-1.36-.76-2.42-1.85-3.19-3.27s-1.14-3.1-1.14-5.06.34-3.6,1.04-5.08c.69-1.48,1.69-2.65,3.01-3.5,1.31-.85,2.9-1.28,4.76-1.28,2.75,0,4.84.85,6.28,2.56,1.44,1.71,2.16,3.97,2.16,6.78v1.33h-12.87c-.01,1.58.37,2.88,1.15,3.9s1.93,1.52,3.44,1.52c1.03,0,1.93-.23,2.69-.69.76-.46,1.27-1.17,1.52-2.11h4c-.22,1.3-.73,2.39-1.54,3.29-.81.9-1.79,1.58-2.95,2.05-1.16.47-2.37.7-3.63.7ZM306.11,30.14h8.75c0-1.34-.35-2.48-1.06-3.41-.71-.93-1.79-1.4-3.26-1.4-.96,0-1.77.23-2.43.7-.66.47-1.16,1.07-1.49,1.81s-.5,1.5-.5,2.29Z"/>
      <path class="cls-1" d="M323.17,41.15v-18.61h4.28v2.66c.43-.72,1.1-1.38,2.01-1.98.91-.6,2.1-.9,3.59-.9,1.15,0,2.22.23,3.21.68s1.79,1.17,2.39,2.14c.61.97.91,2.23.91,3.76v12.24h-4.39v-11.72c0-1.21-.34-2.12-1.02-2.72s-1.52-.9-2.53-.9-2,.26-2.83.79c-.83.53-1.25,1.33-1.25,2.39v12.15h-4.37Z"/>
      <path class="cls-1" d="M351.02,41.3c-1.48,0-2.62-.19-3.43-.58-.81-.38-1.37-.94-1.68-1.67-.31-.73-.47-1.59-.47-2.58v-10.84h-3.02v-3.1h3.15l1.1-5.53h3.15v5.51h4.16v3.11h-4.16l.02,10.67c0,.83.14,1.34.43,1.54.29.2.79.3,1.49.3h2.3v2.77c-.25.1-.62.18-1.11.26-.49.08-1.13.12-1.93.12Z"/>
      <path class="cls-1" d="M358.09,19.28v-4.14h4.34v4.14h-4.34ZM358.17,41.15v-18.61h4.19v18.61h-4.19Z"/>
      <path class="cls-1" d="M372.76,41.51c-1.79,0-3.27-.48-4.45-1.45s-1.76-2.33-1.76-4.1c0-2.05.74-3.6,2.22-4.64s3.84-1.59,7.08-1.64l2.79-.07v-1.26c0-.98-.29-1.75-.88-2.3-.59-.55-1.49-.83-2.7-.83-.91.01-1.74.23-2.48.65-.74.42-1.24,1.11-1.48,2.07h-3.73c.1-1.91.86-3.35,2.29-4.31,1.43-.97,3.3-1.45,5.59-1.45,2.65,0,4.58.52,5.79,1.56,1.21,1.04,1.81,2.49,1.81,4.37v13.05h-3.69l-.36-3.35c-.67,1.4-1.52,2.37-2.54,2.91-1.02.53-2.19.8-3.51.8ZM374.19,38.54c.72,0,1.42-.17,2.11-.51.68-.34,1.25-.78,1.68-1.32.44-.54.66-1.12.67-1.73v-2.93l-2.29.04c-1.69.02-3.05.29-4.09.81-1.03.52-1.55,1.39-1.55,2.63,0,.95.33,1.69.98,2.22.65.53,1.48.8,2.47.8Z"/>
      <path class="cls-1" d="M392.9,41.42c-1.61,0-2.79-.25-3.55-.77-.76-.51-1.25-1.17-1.48-1.99-.22-.82-.33-1.66-.33-2.54V14.4h4.28v21.22c0,.8.17,1.43.5,1.87s.87.7,1.61.77l.94.04v2.75c-.32.11-.66.19-1,.26-.34.07-.66.1-.96.1Z"/>
      <path class="cls-1" d="M408.02,41.15V15.13h2.83c.73,0,1.47,0,2.21,0,.74,0,1.4.02,1.96.03,4.75.1,8.19,1.26,10.31,3.49s3.19,5.35,3.19,9.34-1.12,7.41-3.37,9.71-5.71,3.45-10.4,3.45h-6.73ZM412.47,37.53h2.36c1.79,0,3.37-.31,4.73-.93,1.37-.62,2.44-1.62,3.21-3.02.77-1.39,1.16-3.25,1.16-5.58s-.36-4.06-1.08-5.42c-.72-1.36-1.75-2.34-3.1-2.94s-2.95-.91-4.82-.91h-2.47v18.79Z"/>
      <path class="cls-1" d="M438.23,41.51c-1.79,0-3.27-.48-4.45-1.45s-1.76-2.33-1.76-4.1c0-2.05.74-3.6,2.22-4.64s3.84-1.59,7.08-1.64l2.79-.07v-1.26c0-.98-.29-1.75-.88-2.3-.59-.55-1.49-.83-2.7-.83-.91.01-1.74.23-2.48.65-.74.42-1.24,1.11-1.48,2.07h-3.73c.1-1.91.86-3.35,2.29-4.31,1.43-.97,3.3-1.45,5.59-1.45,2.65,0,4.58.52,5.79,1.56,1.21,1.04,1.81,2.49,1.81,4.37v13.05h-3.69l-.36-3.35c-.67,1.4-1.52,2.37-2.54,2.91-1.02.53-2.19.8-3.51.8ZM439.65,38.54c.72,0,1.42-.17,2.11-.51.68-.34,1.25-.78,1.68-1.32.44-.54.66-1.12.67-1.73v-2.93l-2.29.04c-1.69.02-3.05.29-4.09.81-1.03.52-1.55,1.39-1.55,2.63,0,.95.33,1.69.98,2.22.65.53,1.48.8,2.47.8Z"/>
      <path class="cls-1" d="M459.77,41.3c-1.48,0-2.62-.19-3.43-.58-.81-.38-1.37-.94-1.68-1.67-.31-.73-.47-1.59-.47-2.58v-10.84h-3.02v-3.1h3.15l1.1-5.53h3.15v5.51h4.16v3.11h-4.16l.02,10.67c0,.83.14,1.34.43,1.54.29.2.79.3,1.49.3h2.3v2.77c-.25.1-.62.18-1.11.26-.49.08-1.13.12-1.93.12Z"/>
      <path class="cls-1" d="M472.14,41.51c-1.79,0-3.27-.48-4.45-1.45s-1.76-2.33-1.76-4.1c0-2.05.74-3.6,2.22-4.64s3.84-1.59,7.08-1.64l2.79-.07v-1.26c0-.98-.29-1.75-.88-2.3-.59-.55-1.49-.83-2.7-.83-.91.01-1.74.23-2.48.65-.74.42-1.24,1.11-1.48,2.07h-3.73c.1-1.91.86-3.35,2.29-4.31,1.43-.97,3.3-1.45,5.59-1.45,2.65,0,4.58.52,5.79,1.56,1.21,1.04,1.81,2.49,1.81,4.37v13.05h-3.69l-.36-3.35c-.67,1.4-1.52,2.37-2.54,2.91-1.02.53-2.19.8-3.51.8ZM473.56,38.54c.72,0,1.42-.17,2.11-.51.68-.34,1.25-.78,1.68-1.32.44-.54.66-1.12.67-1.73v-2.93l-2.29.04c-1.69.02-3.05.29-4.09.81-1.03.52-1.55,1.39-1.55,2.63,0,.95.33,1.69.98,2.22.65.53,1.48.8,2.47.8Z"/>
    </g>
  </g>
</svg>