<?xml version="1.0" encoding="UTF-8"?>
<svg xmlns="http://www.w3.org/2000/svg" viewBox="0 0 45 52.48" height="32">
  <defs>
    <style>
      .cls-2 {
        fill: #ffffff;
      }

      .cls-3 {
        fill: #2d618b;
      }

      .cls-4 {
        fill: #b42024;
      }
    </style>
  </defs>
  <g>
    <path class="cls-3" d="M22.49,0C10.07,0,0,3.36,0,7.5v3.75c0,4.14,10.07,7.5,22.49,7.5s22.49-3.36,22.49-7.5v-3.75c0-4.14-10.07-7.5-22.49-7.5Z"/>
    <path class="cls-4" d="M22.49,22.49c-8.66,0-17.34-1.54-22.23-4.83-.16.36-.26.72-.26,1.08v3.75c0,4.14,10.07,7.5,22.49,7.5s22.49-3.36,22.49-7.5v-3.75c0-.37-.1-.73-.26-1.08-4.89,3.29-13.57,4.83-22.23,4.83Z"/>
    <path class="cls-4" d="M22.49,33.74c-8.66,0-17.34-1.54-22.23-4.83-.16.36-.26.72-.26,1.08v3.75c0,4.14,10.07,7.5,22.49,7.5s22.49-3.36,22.49-7.5v-3.75c0-.37-.1-.73-.26-1.08-4.89,3.29-13.57,4.83-22.23,4.83Z"/>
    <path class="cls-4" d="M22.49,44.99c-8.66,0-17.34-1.54-22.23-4.83-.16.36-.26.72-.26,1.08v3.75c0,4.14,10.07,7.5,22.49,7.5s22.49-3.36,22.49-7.5v-3.75c0-.37-.1-.73-.26-1.08-4.89,3.29-13.57,4.83-22.23,4.83Z"/>
    <polygon class="cls-2" points="4.6 6.66 5.09 8.16 6.66 8.16 5.39 9.08 5.87 10.58 4.6 9.66 3.33 10.58 3.81 9.08 2.54 8.16 4.11 8.16 4.6 6.66"/>
    <polygon class="cls-2" points="9.63 11.49 10.11 12.98 11.69 12.98 10.42 13.91 10.9 15.4 9.63 14.48 8.36 15.4 8.84 13.91 7.57 12.98 9.14 12.98 9.63 11.49"/>
    <polygon class="cls-2" points="9.63 2.24 10.11 3.73 11.69 3.73 10.42 4.66 10.9 6.15 9.63 5.23 8.36 6.15 8.84 4.66 7.57 3.73 9.14 3.73 9.63 2.24"/>
    <polygon class="cls-2" points="15.61 6.66 16.1 8.16 17.67 8.16 16.4 9.08 16.88 10.58 15.61 9.66 14.34 10.58 14.82 9.08 13.55 8.16 15.12 8.16 15.61 6.66"/>
    <polygon class="cls-2" points="21.51 11.49 21.99 12.98 23.57 12.98 22.3 13.91 22.78 15.4 21.51 14.48 20.24 15.4 20.72 13.91 19.45 12.98 21.02 12.98 21.51 11.49"/>
    <polygon class="cls-2" points="21.51 2.24 21.99 3.73 23.57 3.73 22.3 4.66 22.78 6.15 21.51 5.23 20.24 6.15 20.72 4.66 19.45 3.73 21.02 3.73 21.51 2.24"/>
    <polygon class="cls-2" points="28.71 6.66 29.19 8.16 30.77 8.16 29.49 9.08 29.98 10.58 28.71 9.66 27.43 10.58 27.92 9.08 26.65 8.16 28.22 8.16 28.71 6.66"/>
    <polygon class="cls-2" points="40.41 6.66 40.9 8.16 42.47 8.16 41.2 9.08 41.68 10.58 40.41 9.66 39.14 10.58 39.63 9.08 38.35 8.16 39.93 8.16 40.41 6.66"/>
    <polygon class="cls-2" points="33.36 11.49 33.84 12.98 35.42 12.98 34.14 13.91 34.63 15.4 33.36 14.48 32.08 15.4 32.57 13.91 31.3 12.98 32.87 12.98 33.36 11.49"/>
    <polygon class="cls-2" points="34.82 2.24 35.31 3.73 36.88 3.73 35.61 4.66 36.1 6.15 34.82 5.23 33.55 6.15 34.04 4.66 32.76 3.73 34.34 3.73 34.82 2.24"/>
  </g>
</svg>
